<?xml version="1.0" standalone="no"?>
<!DOCTYPE svg PUBLIC "-//W3C//DTD SVG 20010904//EN"
 "http://www.w3.org/TR/2001/REC-SVG-20010904/DTD/svg10.dtd">
<svg version="1.0" xmlns="http://www.w3.org/2000/svg"
 width="100.000000pt" height="100.000000pt" viewBox="0 0 100.000000 100.000000"
 preserveAspectRatio="xMidYMid meet">

<g transform="translate(0.000000,100.000000) scale(0.100000,-0.100000)"
fill="#000000" stroke="none">
<path d="M279 736 c-130 -34 -237 -65 -238 -71 -3 -26 22 -73 44 -83 24 -11
25 -15 25 -117 l0 -105 30 0 30 0 0 91 c0 107 -22 106 191 9 96 -43 158 -66
169 -62 9 4 105 49 213 101 188 91 196 96 211 133 11 29 12 40 3 43 -12 4
-340 95 -407 112 -29 8 -74 0 -271 -51z"/>
<path d="M655 406 l-139 -62 -140 58 c-77 32 -141 56 -144 54 -7 -7 18 -178
29 -199 15 -27 107 -66 185 -79 117 -20 293 25 324 82 12 22 34 171 28 193 -2
11 -35 1 -143 -47z"/>
<path d="M134 323 c-24 -5 -34 -29 -34 -86 l0 -38 43 3 c41 3 42 3 39 38 -4
53 -13 90 -20 89 -4 -1 -17 -4 -28 -6z"/>
</g>
</svg>
